<?xml version="1.0" encoding="UTF-8"?><svg id="_层_2" xmlns="http://www.w3.org/2000/svg" viewBox="0 0 1317.35 204"><defs><style>.cls-1,.cls-2{fill:#83909b;}.cls-2{font-family:Inter-Medium, Inter;font-size:172.41px;font-variation-settings:'wght' 500, 'slnt' 0;}.cls-3{letter-spacing:0em;}.cls-4{letter-spacing:0em;}</style></defs><g id="_层_1-2"><g><path class="cls-1" d="M503.18,33.05c0-2.37,0-4.75,0-7.12,0-.51,0-.94-.74-.8-6.18,1.11-12.26,2.61-18.1,4.98-9.08,3.7-16.84,9.15-22.73,17.08-5.34,7.2-8.44,15.39-10.53,24.02-2.39,9.89-3.29,20.01-4.6,30.06-.62,4.82-1.32,9.61-2.63,14.3-1.13,4.03-2.68,7.88-5.42,11.11-4.04,4.76-9.4,6.55-15.43,6.7-.84,.02-1.03,.22-1.02,1.04,.04,4.48,.05,8.96,0,13.44-.01,.87,.24,1.04,1.05,.99,3.36-.19,6.72-.35,10.04-1,4.98-.97,9.66-2.67,13.79-5.7,5.46-4.02,8.81-9.53,11.06-15.81,2.7-7.53,3.77-15.4,4.8-23.28,.84-6.47,1.48-12.96,2.58-19.39,.94-5.54,2.21-10.99,4.26-16.24,3.67-9.4,9.66-16.8,18.67-21.6,4.34-2.31,8.94-3.88,13.74-4.86,.99-.2,1.27-.54,1.23-1.52-.08-2.14-.03-4.28-.02-6.42Z"/><path class="cls-1" d="M202.24,25.3c-33.44-.04-62.14,26.83-62.17,62.08-.03,34.45,27.62,62.16,62.11,62.15,35.22,0,62.25-28.66,62.08-62.13,.13-34.16-27.84-62.05-62.02-62.09Zm-.02,108.09c-25.32,0-45.77-20.47-45.76-45.82,0-25.29,20.55-45.89,45.82-45.8,25.39,.09,45.8,20.4,45.78,45.86-.02,25.98-21.18,45.89-45.84,45.76Z"/><path class="cls-1" d="M343.27,24.73c-33.66-.04-62.55,27.01-62.58,62.49-.03,34.68,27.8,62.56,62.52,62.56,26.07,0,47.68-15.61,57.23-37.28l-18.79,.04c-8.27,12.97-22.45,20.75-38.47,20.67-22.63,0-41.37-16.29-45.2-37.81h106.73c.29,0,.53-.21,.56-.49,.3-2.52,.45-5.08,.44-7.67,.13-34.38-28.03-62.46-62.43-62.5Zm-45.29,54.35c3.85-21.52,22.68-37.9,45.27-37.82,22.69,.08,41.41,16.24,45.23,37.82h-90.49Z"/><path class="cls-1" d="M123.41,25.23h-15.56c-.11,0-.21,.05-.27,.14L62.25,92.96c-.13,.19-.41,.19-.53,0L16.29,25.26c-.06-.09-.16-.14-.27-.14H.32c-.18,0-.32,.14-.32,.32v123.64c0,.18,.14,.32,.32,.32H15.88c.18,0,.32-.14,.32-.32V54.99c0-.32,.41-.44,.59-.18l38.61,57.57c.06,.09,.16,.14,.27,.14h12.65c.11,0,.21-.05,.27-.14l38.33-57.15c.19-.28,.63-.15,.63,.19v93.76c0,.18,.14,.32,.32,.32h15.84c.18,0,.32-.14,.32-.32l-.29-123.64c0-.18-.14-.32-.32-.32Z"/></g><rect class="cls-1" x="627.4" y="24.73" width="7.33" height="124.14"/><text class="cls-2" transform="translate(751.81 148.9)"><tspan class="cls-3" x="0" y="0">F</tspan><tspan class="cls-4" x="99.86" y="0">r</tspan><tspan x="165.25" y="0">ance</tspan></text></g></svg>