<svg width="140.000000" height="34.000000" viewBox="0 0 140 34" fill="none" xmlns="http://www.w3.org/2000/svg" xmlns:xlink="http://www.w3.org/1999/xlink">
	<desc>
			Created with Pixso.
	</desc>
	<defs/>
	<path id="Vector" d="M139.28 1.33C139.28 1.92 139.28 2.52 139.28 3.12C139.28 3.4 139.22 3.49 138.94 3.55C137.61 3.81 136.32 4.27 135.12 4.91C132.7 6.21 130.85 8.36 129.92 10.95C129.38 12.42 128.98 13.94 128.74 15.5C128.43 17.3 128.26 19.12 128.02 20.93C127.74 23.13 127.44 25.33 126.69 27.44C126.06 29.19 125.13 30.74 123.61 31.87C122.47 32.68 121.16 33.23 119.77 33.46C118.85 33.62 117.92 33.71 116.98 33.74C116.76 33.74 116.69 33.71 116.69 33.47C116.69 32.21 116.69 30.96 116.69 29.7C116.69 29.47 116.74 29.42 116.98 29.41C118.66 29.37 120.15 28.87 121.27 27.55C121.99 26.63 122.51 25.57 122.78 24.44C123.12 23.12 123.37 21.78 123.52 20.43C123.89 17.62 124.13 14.79 124.8 12.02C125.31 9.6 126.31 7.32 127.73 5.31C129.34 3.14 131.53 1.47 134.04 0.49C135.67 -0.15 137.36 -0.61 139.08 -0.89C139.28 -0.93 139.28 -0.81 139.28 -0.67L139.28 1.33Z" fill="#83909B" fill-opacity="1.000000" fill-rule="evenodd"/>
	<path id="Vector" d="M55.55 -0.84C52.13 -0.85 48.79 0.17 45.94 2.07C43.1 3.98 40.88 6.7 39.57 9.88C38.25 13.05 37.91 16.55 38.57 19.93C39.24 23.3 40.89 26.4 43.3 28.84C45.72 31.27 48.8 32.93 52.16 33.6C55.51 34.27 58.99 33.92 62.15 32.61C65.31 31.29 68.01 29.06 69.91 26.19C71.8 23.33 72.81 19.97 72.81 16.52C72.81 11.92 70.99 7.5 67.75 4.25C64.52 0.99 60.13 -0.84 55.55 -0.84ZM55.55 29.41C53.03 29.41 50.57 28.65 48.47 27.24C46.38 25.83 44.75 23.83 43.78 21.48C42.82 19.14 42.57 16.56 43.07 14.07C43.56 11.59 44.78 9.3 46.56 7.51C48.35 5.72 50.62 4.5 53.09 4.01C55.56 3.52 58.13 3.77 60.46 4.75C62.78 5.72 64.77 7.37 66.17 9.48C67.57 11.59 68.31 14.07 68.31 16.6C68.31 18.29 67.98 19.96 67.34 21.51C66.7 23.07 65.76 24.48 64.57 25.67C63.39 26.86 61.98 27.8 60.43 28.44C58.89 29.09 57.23 29.42 55.55 29.41Z" fill="#83909B" fill-opacity="1.000000" fill-rule="evenodd"/>
	<path id="Vector" d="M105.47 23.57C104.33 25.38 102.74 26.86 100.87 27.87C98.99 28.88 96.89 29.39 94.77 29.36C91.77 29.36 88.86 28.3 86.56 26.36C84.26 24.42 82.72 21.73 82.19 18.76L111.88 18.76C111.92 18.76 111.96 18.75 111.99 18.72C112.02 18.7 112.04 18.66 112.04 18.62C112.13 17.91 112.17 17.2 112.16 16.48C112.16 12.17 110.56 8.01 107.69 4.81C104.82 1.61 100.87 -0.41 96.6 -0.85C92.34 -1.3 88.06 -0.14 84.6 2.41C81.13 4.95 78.73 8.69 77.84 12.91C76.96 17.13 77.66 21.53 79.81 25.26C81.96 28.99 85.41 31.79 89.49 33.12C93.57 34.44 98 34.2 101.91 32.43C105.82 30.67 108.95 27.51 110.68 23.57L105.47 23.57ZM94.78 3.62C97.79 3.62 100.7 4.67 103 6.61C105.31 8.54 106.86 11.23 107.39 14.21L82.19 14.21C82.72 11.24 84.27 8.55 86.58 6.61C88.88 4.67 91.79 3.62 94.79 3.62L94.78 3.62Z" fill="#83909B" fill-opacity="1.000000" fill-rule="evenodd"/>
	<path id="Vector" d="M3.79 33.8L3.79 7.47C3.79 7.45 3.8 7.43 3.81 7.41C3.82 7.4 3.84 7.39 3.86 7.38C3.88 7.37 3.89 7.38 3.91 7.38C3.93 7.39 3.95 7.4 3.96 7.42L14.71 23.53C14.72 23.54 14.73 23.55 14.74 23.56C14.75 23.57 14.77 23.57 14.78 23.57L18.3 23.57C18.31 23.57 18.33 23.57 18.34 23.56C18.36 23.55 18.37 23.54 18.37 23.53L29.03 7.54C29.04 7.52 29.06 7.5 29.08 7.49C29.1 7.49 29.12 7.48 29.14 7.49C29.16 7.5 29.18 7.51 29.19 7.53C29.2 7.55 29.21 7.57 29.21 7.59L29.21 33.83C29.21 33.85 29.22 33.88 29.23 33.89C29.25 33.91 29.27 33.92 29.3 33.92L33.71 33.92C33.73 33.92 33.75 33.91 33.77 33.89C33.79 33.88 33.8 33.85 33.8 33.83L33.71 -0.78C33.71 -0.79 33.71 -0.8 33.71 -0.81C33.7 -0.82 33.7 -0.83 33.69 -0.84C33.68 -0.85 33.67 -0.85 33.66 -0.86C33.65 -0.86 33.64 -0.86 33.63 -0.86L29.3 -0.86C29.28 -0.86 29.27 -0.86 29.25 -0.85C29.24 -0.85 29.23 -0.84 29.22 -0.83L16.62 18.1C16.61 18.11 16.6 18.12 16.58 18.12C16.57 18.13 16.56 18.14 16.54 18.14C16.53 18.14 16.51 18.13 16.5 18.12C16.49 18.12 16.48 18.11 16.47 18.1L3.82 -0.86C3.81 -0.87 3.8 -0.88 3.79 -0.89C3.77 -0.9 3.75 -0.9 3.74 -0.9L-0.62 -0.9C-0.65 -0.9 -0.67 -0.89 -0.69 -0.87C-0.7 -0.85 -0.71 -0.83 -0.71 -0.81L-0.71 33.8C-0.71 33.82 -0.7 33.85 -0.69 33.86C-0.67 33.88 -0.65 33.89 -0.62 33.89L3.7 33.89C3.73 33.89 3.75 33.88 3.77 33.86C3.78 33.85 3.79 33.82 3.79 33.8Z" fill="#83909B" fill-opacity="1.000000" fill-rule="nonzero"/>
</svg>
