<?xml version="1.0" encoding="UTF-8"?><svg id="2" xmlns="http://www.w3.org/2000/svg" xmlns:xlink="http://www.w3.org/1999/xlink" viewBox="0 0 288 288"><defs><style>.cls-1{fill:#3eb8d5;}.cls-2{fill:#5cc4fd;}.cls-3{fill:#006cdc;}.cls-4{fill:#069cf1;}.cls-5{clip-path:url(#clippath);}.cls-6{fill:none;}.cls-7{fill:#d0fdff;}</style><clipPath id="clippath"><rect class="cls-6" y="0" width="288" height="288"/></clipPath></defs><g id="Layer_1"><g class="cls-5"><g><path class="cls-3" d="M75,125.5c-.08-.02-.17-.04-.25-.06-.03-.02-.06-.03-.09-.05,.09,.02,.17,.04,.25,.06,.03,.02,.06,.03,.09,.05Z"/><path class="cls-1" d="M59.18,121.72s-.07-.01-.1-.02c-.01,0-.03-.01-.04-.02,.03,0,.07,.01,.1,.02l.04,.02Z"/><path class="cls-1" d="M42.96,118.33c-.09-.02-.17-.03-.26-.05-.05-.02-.09-.04-.14-.06,.09,.02,.17,.03,.26,.05,.05,.02,.09,.04,.14,.06Z"/><path class="cls-3" d="M25.91,115.3c-.11-.02-.22-.04-.33-.05-.07-.03-.14-.06-.21-.08,.11,.02,.23,.03,.33,.05,.07,.03,.14,.06,.21,.08Z"/><path class="cls-2" d="M7.72,112.71s-.08,0-.12-.01c-.03-.01-.06-.02-.08-.03,.04,0,.08,0,.12,.01,.03,.01,.05,.02,.08,.03Z"/><path class="cls-2" d="M279.35,215.5c-.13-.09-.27-.19-.41-.29,.09,.03,.18,.07,.26,.1,.15,.1,.28,.19,.41,.29-.09-.03-.18-.07-.27-.1Z"/><path class="cls-2" d="M260.98,203.37s-.09-.05-.13-.08l.07,.02s.09,.05,.13,.08c-.02,0-.04-.01-.07-.02Z"/><path class="cls-7" d="M243.3,192.8l-.06-.03h.02l.06,.04h-.02Z"/><path class="cls-3" d="M226.42,183.52c-.08-.04-.16-.09-.25-.13,.02,0,.05,0,.07,.01,.08,.04,.16,.09,.25,.13-.02,0-.05,0-.07-.01Z"/><path class="cls-1" d="M210.17,175.23c-.11-.05-.21-.1-.32-.16,.02,0,.04,0,.06,0,.11,.05,.21,.1,.32,.16-.02,0-.04,0-.06,0Z"/><path class="cls-2" d="M88.22,130.38c-.45-.12-.9-.23-1.34-.35-.15-.08-.3-.16-.44-.24,.45,.12,.9,.24,1.35,.35,.14,.08,.29,.16,.43,.24Z"/><path class="cls-2" d="M73.16,126.58c-.06-.01-.13-.03-.19-.04l-.08-.04c.06,.01,.13,.03,.2,.05,.03,.01,.05,.02,.07,.04Z"/><path class="cls-4" d="M59.3,123.61c-.42-.09-.85-.17-1.27-.26-.2-.09-.4-.18-.59-.28,.43,.09,.85,.17,1.28,.26,.2,.09,.39,.18,.58,.27Z"/><path class="cls-3" d="M43.96,120.72c-.29-.05-.58-.1-.86-.14-.16-.07-.32-.14-.48-.2,.29,.05,.58,.1,.87,.15,.16,.07,.32,.14,.47,.2Z"/><path class="cls-4" d="M28.66,118.46c-.36-.05-.73-.09-1.09-.14-.24-.09-.47-.19-.72-.28,.37,.04,.73,.09,1.1,.14,.23,.09,.47,.19,.7,.28Z"/><path class="cls-3" d="M13,116.86c-.45-.04-.9-.07-1.35-.1-.35-.13-.7-.26-1.06-.39,.45,.03,.92,.07,1.37,.11,.35,.13,.69,.25,1.04,.38Z"/><path class="cls-1" d="M49.81,247.9c1.18,.58,2.37,1.15,3.58,1.71-.58,.42-1.18,.84-1.78,1.27-1.24-.58-2.47-1.18-3.68-1.77,.64-.41,1.27-.82,1.88-1.21Z"/><path class="cls-2" d="M122.67,278.27c.42,.14,.84,.28,1.26,.42-.07,.18-.13,.37-.2,.57-.43-.15-.87-.29-1.3-.44,.08-.19,.16-.37,.24-.55Z"/><path class="cls-2" d="M276.33,217.43c-.43-.34-.88-.68-1.32-1.02,.32,.12,.63,.25,.96,.38,.45,.35,.9,.69,1.35,1.04-.33-.13-.66-.26-.98-.39Z"/><path class="cls-3" d="M260.76,206.09c-.28-.19-.58-.39-.86-.58,.16,.05,.31,.11,.47,.16,.29,.2,.59,.4,.88,.59-.16-.06-.32-.11-.49-.17Z"/><path class="cls-4" d="M245.25,196.1c-.37-.23-.74-.45-1.11-.68,.15,.04,.31,.09,.46,.13,.38,.23,.75,.46,1.12,.68-.16-.05-.32-.09-.48-.14Z"/><path class="cls-2" d="M229.68,186.96c-.17-.1-.35-.19-.52-.29,.05,.01,.11,.02,.16,.04,.18,.1,.35,.2,.53,.3-.06-.01-.11-.03-.17-.04Z"/><path class="cls-3" d="M214.67,178.89c-.22-.11-.44-.23-.66-.34,.05,0,.1,.01,.15,.02,.22,.11,.44,.23,.67,.34-.05,0-.11-.01-.16-.02Z"/><path class="cls-4" d="M200.07,171.62c-.3-.15-.61-.29-.91-.44,.05,0,.09,0,.14,0,.31,.15,.61,.29,.92,.44-.05,0-.1,0-.15,0Z"/><path class="cls-1" d="M85.55,130.96c-.28-.07-.55-.14-.83-.2-.1-.05-.19-.1-.29-.15,.28,.07,.56,.14,.84,.21,.09,.05,.19,.1,.28,.15Z"/><path class="cls-1" d="M72.82,128.07c-.58-.12-1.16-.25-1.73-.37-.24-.12-.48-.23-.72-.35,.58,.12,1.17,.25,1.75,.37,.23,.11,.47,.23,.7,.34Z"/><path class="cls-7" d="M58.82,125.27c-.37-.07-.74-.13-1.11-.2-.18-.08-.37-.16-.55-.25,.37,.07,.75,.13,1.13,.2,.18,.08,.36,.16,.53,.24Z"/><path class="cls-2" d="M45.07,123.09c-.37-.05-.73-.1-1.1-.15-.22-.09-.43-.18-.65-.27,.37,.05,.74,.1,1.12,.15,.21,.09,.42,.18,.63,.26Z"/><path class="cls-2" d="M32.31,121.74c-.8-.07-1.6-.14-2.38-.2-.56-.21-1.13-.43-1.7-.65,.81,.07,1.62,.14,2.44,.21,.55,.21,1.1,.42,1.65,.63Z"/><path class="cls-3" d="M16.9,120.64c-.2,0-.4,0-.59-.01-.17-.06-.34-.12-.52-.18,.2,0,.41,0,.61,.02,.17,.06,.33,.12,.5,.18Z"/><path class="cls-3" d="M4.53,121.05c-.59,.04-1.17,.08-1.74,.12-.63-.2-1.26-.4-1.91-.6,.6-.04,1.21-.08,1.81-.11,.62,.2,1.23,.4,1.84,.59Z"/><path class="cls-2" d="M10.06,192.2c1.9,1.33,3.83,2.68,5.86,4.03-1.76,.29-3.58,.58-5.43,.88-2.07-1.41-4.05-2.81-5.99-4.2,1.9-.24,3.75-.48,5.56-.71Z"/><path class="cls-4" d="M51.2,218.79c.48,.26,.97,.51,1.47,.76-.25,.11-.5,.23-.76,.35-.52-.26-1.03-.53-1.52-.8,.28-.11,.55-.21,.82-.31Z"/><path class="cls-1" d="M100.61,239.75c3.35,1.36,6.72,2.68,10.1,3.98-.76,1.02-1.55,2.06-2.35,3.13-3.54-1.35-7.05-2.74-10.54-4.16,.96-1.01,1.89-1.99,2.79-2.95Z"/><path class="cls-2" d="M157.43,259.81c2.69,.78,5.36,1.53,8,2.24,.02,1.01,.05,2.04,.08,3.11-2.77-.73-5.55-1.51-8.36-2.33,.1-1.04,.19-2.05,.28-3.03Z"/><path class="cls-1" d="M210.56,272.29c1.7,.28,3.38,.55,5.02,.77,.42,.8,.85,1.62,1.29,2.46-1.7-.23-3.44-.49-5.21-.77-.37-.84-.74-1.66-1.1-2.46Z"/><path class="cls-7" d="M249.92,275.19c1.86,0,3.69-.03,5.44-.11,1.01,1.14,2.05,2.31,3.11,3.5-1.8,.1-3.66,.16-5.59,.18-1.01-1.22-2-2.41-2.96-3.57Z"/><path class="cls-4" d="M279.55,272.67c.28-.08,.54-.17,.8-.27,.29,.25,.59,.5,.89,.76-.25,.11-.52,.2-.81,.29-.3-.27-.6-.53-.88-.78Z"/><path class="cls-1" d="M283.54,229.69c-.22-.25-.45-.51-.67-.76,.28,.13,.57,.27,.86,.41,.24,.26,.48,.53,.71,.79-.3-.15-.6-.29-.89-.43Z"/><path class="cls-3" d="M272.34,218.62c-.37-.33-.74-.66-1.11-.98,.31,.13,.62,.26,.94,.4,.39,.34,.77,.67,1.15,1.01-.33-.14-.66-.28-.98-.42Z"/><path class="cls-4" d="M259.68,208.36c-.5-.38-1.01-.76-1.52-1.14,.31,.11,.62,.23,.93,.35,.52,.38,1.05,.77,1.56,1.16-.33-.12-.65-.25-.97-.37Z"/><path class="cls-2" d="M246.17,198.84c-.45-.3-.91-.6-1.37-.9,.21,.06,.42,.13,.63,.2,.47,.31,.94,.61,1.4,.92-.22-.07-.44-.14-.66-.21Z"/><path class="cls-2" d="M232.43,190.23c-.5-.3-.99-.59-1.49-.89,.17,.04,.34,.09,.51,.13,.51,.3,1.01,.6,1.52,.9-.18-.05-.36-.1-.54-.14Z"/><path class="cls-4" d="M218.82,182.49c-.67-.37-1.34-.73-2.01-1.09,.17,.03,.34,.06,.51,.09,.68,.37,1.36,.74,2.04,1.11-.18-.03-.36-.07-.54-.1Z"/><path class="cls-3" d="M204.78,175.07c-.35-.18-.69-.35-1.04-.52,.06,0,.12,0,.18,0,.35,.17,.7,.35,1.06,.53h-.2Z"/><path class="cls-1" d="M95.91,134.71c-.23-.06-.46-.12-.69-.18-.07-.04-.14-.08-.21-.11,.23,.06,.46,.12,.7,.18,.07,.04,.13,.07,.2,.11Z"/><path class="cls-4" d="M85.1,132.18c-1.01-.23-2.02-.46-3.02-.68-.37-.18-.74-.37-1.12-.56,1.03,.23,2.05,.46,3.08,.69,.36,.18,.71,.36,1.06,.54Z"/><path class="cls-1" d="M70.85,129.06c-.15-.03-.3-.06-.45-.09-.07-.03-.13-.06-.2-.09,.15,.03,.31,.06,.46,.09l.19,.09Z"/><path class="cls-2" d="M59.53,127.22c-.68-.1-1.35-.2-2.02-.3-.36-.15-.72-.3-1.08-.46,.68,.1,1.38,.2,2.07,.31,.35,.15,.69,.3,1.03,.44Z"/><path class="cls-3" d="M46.62,125.53c-.47-.05-.93-.09-1.38-.13-.29-.12-.59-.23-.89-.35,.47,.04,.94,.09,1.42,.14,.29,.12,.57,.23,.85,.34Z"/><path class="cls-1" d="M34.34,124.65c-.44-.02-.87-.03-1.3-.04-.34-.12-.68-.25-1.03-.37,.45,.01,.89,.03,1.35,.05,.33,.12,.66,.24,.98,.36Z"/><path class="cls-3" d="M23.71,124.83c-.82,.03-1.62,.08-2.42,.14-.79-.26-1.59-.53-2.4-.79,.83-.05,1.67-.09,2.53-.12,.78,.26,1.54,.52,2.29,.78Z"/><path class="cls-3" d="M11.08,125.81c-.24,.04-.46,.09-.69,.13-.3-.09-.6-.18-.91-.27,.24-.05,.48-.09,.73-.13,.29,.09,.58,.18,.87,.27Z"/><path class="cls-2" d="M2.02,128.53c-.31,.12-.59,.25-.87,.39-.54-.14-1.1-.29-1.66-.44,.3-.14,.61-.27,.94-.39,.54,.15,1.07,.29,1.59,.43Z"/><path class="cls-4" d="M3.66,163.25c.75,.81,1.55,1.64,2.43,2.48-1.28-.05-2.6-.1-3.95-.15-.86-.88-1.67-1.74-2.41-2.58,1.34,.08,2.65,.16,3.93,.24Z"/><path class="cls-4" d="M22.57,179.61c1.42,1.07,2.92,2.15,4.48,3.24-1.34,.11-2.72,.22-4.13,.34-1.6-1.14-3.13-2.27-4.58-3.38,1.45-.06,2.86-.13,4.23-.19Z"/><path class="cls-3" d="M52.18,199.05c1.54,.89,3.14,1.77,4.78,2.65-.84,.24-1.71,.5-2.6,.76-1.7-.93-3.36-1.86-4.96-2.79,.96-.21,1.88-.42,2.78-.62Z"/><path class="cls-3" d="M89.68,217.09c3.47,1.57,6.99,3.12,10.56,4.63-.98,.76-1.99,1.55-3.04,2.36-3.74-1.6-7.43-3.23-11.07-4.88,1.22-.72,2.4-1.42,3.55-2.1Z"/><path class="cls-3" d="M136.67,236.73c1.61,.56,3.21,1.11,4.81,1.62-.12,.44-.26,.9-.39,1.38-1.69-.55-3.38-1.12-5.07-1.71,.22-.44,.43-.88,.64-1.29Z"/><path class="cls-2" d="M178.77,248.27c3.31,.83,6.57,1.59,9.79,2.3,.36,1.12,.72,2.28,1.11,3.48-3.37-.73-6.8-1.53-10.28-2.39-.21-1.17-.41-2.3-.61-3.4Z"/><path class="cls-7" d="M221.72,257.41c.7,.09,1.38,.17,2.04,.23,.22,.29,.44,.6,.67,.91-.69-.06-1.39-.13-2.12-.22-.2-.32-.4-.62-.58-.92Z"/><path class="cls-2" d="M249.13,257.88c1.24-.06,2.41-.14,3.54-.25,.72,.68,1.46,1.39,2.22,2.11-1.15,.14-2.37,.24-3.64,.32-.73-.75-1.44-1.47-2.12-2.18Z"/><path class="cls-2" d="M267.92,254.31c.74-.27,1.42-.56,2.04-.88,.79,.6,1.6,1.21,2.43,1.85-.62,.35-1.3,.67-2.05,.97-.83-.66-1.64-1.31-2.43-1.94Z"/><path class="cls-1" d="M276.55,247.37c.42-.58,.76-1.17,1.03-1.8,1.08,.7,2.19,1.41,3.32,2.14-.24,.67-.57,1.31-.96,1.93-1.16-.78-2.29-1.53-3.39-2.27Z"/><path class="cls-2" d="M278.56,238.72c-.07-.65-.2-1.31-.37-1.99,.93,.52,1.88,1.06,2.84,1.6,.22,.72,.37,1.42,.47,2.1-1-.58-1.98-1.16-2.94-1.71Z"/><path class="cls-2" d="M275.12,229.11c-.28-.48-.58-.96-.92-1.45,.55,.28,1.12,.56,1.7,.85,.36,.51,.7,1.02,1,1.51-.61-.31-1.2-.62-1.78-.92Z"/><path class="cls-2" d="M267.54,219.68c-.72-.79-1.46-1.57-2.24-2.36,.76,.34,1.54,.69,2.33,1.04,.81,.82,1.61,1.64,2.36,2.45-.83-.38-1.65-.76-2.46-1.13Z"/><path class="cls-7" d="M257.73,210.19c-.64-.56-1.31-1.11-2-1.67,.46,.18,.93,.37,1.41,.55,.71,.58,1.41,1.15,2.08,1.73-.5-.2-1-.41-1.49-.61Z"/><path class="cls-2" d="M246.17,201.04c-.29-.21-.59-.43-.89-.64,.15,.05,.3,.1,.46,.15,.31,.22,.62,.44,.92,.66-.16-.06-.33-.12-.49-.17Z"/><path class="cls-3" d="M233.87,192.71c-.18-.11-.36-.23-.54-.34,.07,.02,.13,.04,.2,.06,.19,.12,.37,.23,.55,.35-.07-.02-.15-.04-.22-.07Z"/><path class="cls-3" d="M221.23,185.07c-.12-.07-.24-.14-.36-.21,.03,0,.07,.01,.1,.02,.12,.07,.24,.14,.37,.21-.04,0-.07-.02-.11-.02Z"/><path class="cls-2" d="M208.56,178.09c-.16-.08-.32-.17-.48-.25,.03,0,.06,0,.1,.01,.16,.09,.33,.17,.49,.26-.04,0-.07-.01-.11-.02Z"/><path class="cls-7" d="M195.89,171.65c-.18-.09-.37-.18-.55-.27,.03,0,.05,0,.07,0,.19,.09,.37,.18,.56,.27h-.08Z"/><path class="cls-2" d="M95.38,135.73c-1.16-.28-2.32-.56-3.47-.82-.38-.19-.75-.39-1.13-.58,1.18,.27,2.36,.55,3.55,.84,.36,.19,.71,.38,1.06,.56Z"/><path class="cls-3" d="M82.48,132.75c-.51-.11-1.01-.21-1.51-.31-.2-.09-.4-.19-.6-.28,.51,.1,1.03,.21,1.55,.32,.19,.09,.38,.18,.56,.27Z"/><path class="cls-4" d="M71.9,130.85c-.94-.16-1.88-.31-2.81-.45-.44-.19-.89-.39-1.34-.59,.96,.15,1.92,.31,2.89,.47,.43,.19,.85,.38,1.26,.57Z"/><path class="cls-2" d="M60.06,129.1c-.72-.09-1.44-.17-2.15-.24-.41-.17-.82-.33-1.24-.5,.73,.08,1.47,.16,2.22,.26,.4,.16,.79,.33,1.17,.49Z"/><path class="cls-1" d="M50.29,128.35c-1.24-.08-2.45-.14-3.64-.19-.84-.32-1.7-.64-2.58-.97,1.25,.06,2.51,.13,3.79,.21,.82,.32,1.64,.63,2.44,.94Z"/><path class="cls-4" d="M39.16,128c-.96,.02-1.89,.05-2.81,.1-.82-.28-1.65-.57-2.5-.86,.96-.04,1.94-.07,2.94-.08,.8,.28,1.59,.56,2.36,.84Z"/><path class="cls-1" d="M29.65,128.76c-.95,.13-1.85,.28-2.73,.45-1.05-.33-2.12-.66-3.2-1,.94-.16,1.9-.31,2.9-.43,1.03,.33,2.04,.66,3.03,.98Z"/><path class="cls-7" d="M20.61,130.69c-.62,.22-1.21,.45-1.76,.71-.97-.27-1.96-.55-2.98-.83,.6-.25,1.24-.49,1.91-.7,.96,.28,1.9,.56,2.83,.83Z"/><path class="cls-4" d="M14.01,134.24c-.39,.33-.74,.68-1.04,1.05-1.03-.25-2.08-.5-3.15-.77,.35-.37,.74-.72,1.18-1.05,1.02,.26,2.03,.52,3.01,.77Z"/><path class="cls-7" d="M10.5,139.74c-.11,.46-.17,.93-.19,1.43-1.09-.22-2.2-.44-3.33-.66,.05-.51,.15-1,.32-1.46,1.09,.23,2.16,.46,3.21,.69Z"/><path class="cls-7" d="M11.66,147.44c.26,.72,.6,1.48,1.03,2.25-1.37-.2-2.77-.41-4.21-.62-.39-.8-.69-1.58-.92-2.32,1.4,.23,2.77,.46,4.1,.68Z"/><path class="cls-7" d="M18.48,157.46c1.01,1.19,2.11,2.4,3.34,3.65-1.8-.14-3.65-.28-5.56-.43-1.21-1.3-2.31-2.56-3.29-3.8,1.89,.2,3.73,.39,5.51,.57Z"/><path class="cls-7" d="M32.09,171.33c.94,.76,1.96,1.54,3.04,2.33-.93,.02-1.88,.04-2.87,.06-1.1-.83-2.14-1.64-3.1-2.44,1,.02,1.98,.04,2.92,.05Z"/><path class="cls-2" d="M54.96,187.63c.52,.33,1.08,.65,1.65,.98-.3,.05-.62,.11-.95,.17-.59-.34-1.16-.69-1.71-1.03,.35-.04,.68-.08,1.01-.11Z"/><path class="cls-2" d="M82.83,201.13c3.77,1.87,7.65,3.71,11.6,5.53-1.23,.61-2.52,1.23-3.84,1.88-4.16-1.93-8.22-3.89-12.17-5.86,1.52-.54,3-1.06,4.42-1.56Z"/><path class="cls-2" d="M121.14,219.04c1.83,.73,3.67,1.43,5.53,2.11-.26,.38-.53,.78-.8,1.19-1.96-.72-3.9-1.47-5.83-2.24,.38-.37,.75-.72,1.11-1.07Z"/><path class="cls-1" d="M161.1,233.1c.79,.25,1.58,.47,2.36,.69,.02,.2,.03,.42,.05,.64-.82-.23-1.65-.47-2.49-.73,.03-.21,.06-.41,.09-.6Z"/><path class="cls-3" d="M193.02,240.1c3.17,.67,6.25,1.28,9.24,1.79,.56,1,1.13,2.03,1.73,3.1-3.14-.52-6.39-1.15-9.72-1.84-.43-1.06-.85-2.07-1.25-3.06Z"/><path class="cls-7" d="M225.8,245.66c1.13,.1,2.21,.18,3.23,.21,.41,.44,.83,.9,1.26,1.38-1.07-.03-2.19-.09-3.37-.19-.39-.48-.76-.95-1.12-1.4Z"/><path class="cls-3" d="M247.29,245.41c.81-.08,1.57-.18,2.27-.32,.51,.43,1.04,.86,1.58,1.32-.71,.15-1.49,.28-2.32,.37-.52-.47-1.03-.93-1.52-1.37Z"/><path class="cls-2" d="M261.03,241.72c.29-.13,.54-.29,.76-.45,.33,.23,.68,.47,1.03,.71-.22,.18-.47,.34-.76,.49-.35-.26-.7-.51-1.03-.76Z"/><path class="cls-1" d="M266.14,235.43c.19-.38,.32-.77,.4-1.18,.61,.37,1.24,.74,1.89,1.13-.06,.44-.17,.87-.34,1.27-.66-.42-1.31-.82-1.94-1.22Z"/><path class="cls-3" d="M266.66,227.76c-.04-.19-.11-.39-.19-.59,.24,.13,.48,.26,.74,.39,.09,.21,.17,.42,.22,.62-.26-.14-.52-.29-.77-.42Z"/><path class="cls-2" d="M262.15,219.57c-.22-.34-.47-.68-.74-1.02,.34,.16,.69,.33,1.05,.49,.29,.36,.56,.72,.81,1.07-.38-.19-.75-.37-1.11-.54Z"/><path class="cls-7" d="M254.87,211.24c-.34-.35-.7-.7-1.08-1.06,.3,.12,.6,.25,.92,.38,.4,.37,.78,.74,1.14,1.1-.33-.14-.66-.29-.98-.42Z"/><path class="cls-2" d="M246,203.64c-1.04-.85-2.12-1.71-3.23-2.56,.62,.22,1.24,.45,1.88,.69,1.16,.89,2.28,1.77,3.37,2.65-.68-.26-1.36-.52-2.02-.77Z"/><path class="cls-3" d="M235.01,195.2c-.27-.19-.55-.38-.83-.57,.11,.04,.23,.07,.35,.11,.29,.19,.58,.39,.86,.58-.13-.04-.25-.08-.38-.12Z"/><path class="cls-1" d="M224.03,188.12c-.55-.34-1.11-.68-1.67-1.02,.17,.04,.34,.09,.52,.13,.58,.35,1.16,.7,1.72,1.05-.19-.05-.38-.1-.57-.15Z"/><path class="cls-3" d="M212.35,181.26c-.49-.28-.99-.56-1.5-.83,.11,.02,.22,.04,.34,.06,.52,.28,1.03,.57,1.54,.85-.13-.02-.25-.05-.38-.07Z"/><path class="cls-1" d="M200.51,174.91c-.47-.24-.94-.48-1.41-.72,.07,0,.15,0,.22,0,.48,.24,.96,.49,1.44,.74-.08,0-.17-.01-.25-.02Z"/><path class="cls-1" d="M104.99,139.11c-1.54-.4-3.07-.78-4.59-1.15-.43-.23-.87-.47-1.31-.71,1.56,.38,3.13,.77,4.7,1.18,.41,.23,.8,.45,1.2,.67Z"/><path class="cls-1" d="M93.04,136.17c-.99-.22-1.97-.44-2.95-.64-.34-.17-.68-.33-1.03-.51,1,.21,2.01,.43,3.03,.66,.32,.17,.64,.33,.95,.49Z"/><path class="cls-3" d="M80.79,133.61c-.29-.05-.58-.11-.86-.15-.12-.05-.24-.11-.37-.17,.29,.05,.59,.1,.89,.16,.12,.05,.23,.11,.34,.16Z"/><path class="cls-2" d="M70.01,131.9c-.23-.03-.46-.06-.69-.09-.12-.05-.23-.1-.35-.15,.23,.03,.47,.06,.71,.09,.11,.05,.22,.1,.33,.14Z"/><path class="cls-2" d="M61.48,131.16c-.98-.08-1.94-.15-2.88-.2-.59-.23-1.2-.47-1.81-.71,.98,.06,1.98,.14,2.99,.23,.58,.23,1.14,.46,1.69,.68Z"/><path class="cls-2" d="M52.51,130.84c-1.23-.01-2.43,0-3.58,.03-.93-.33-1.87-.67-2.83-1.02,1.22-.02,2.47-.03,3.76,0,.9,.33,1.78,.66,2.65,.99Z"/><path class="cls-3" d="M43.33,131.18c-1.04,.1-2.05,.23-3.01,.39-1.01-.33-2.05-.67-3.11-1.02,1.02-.15,2.09-.27,3.2-.36,.99,.34,1.96,.67,2.92,1Z"/><path class="cls-2" d="M33.36,132.52c-.25,.07-.49,.15-.7,.24-.34-.1-.68-.2-1.03-.3,.24-.09,.49-.16,.76-.23,.33,.1,.65,.2,.97,.3Z"/><path class="cls-1" d="M28.14,135.37c-.34,.23-.65,.48-.91,.76-.74-.19-1.49-.39-2.27-.59,.3-.27,.65-.53,1.03-.76,.73,.2,1.45,.4,2.15,.59Z"/><path class="cls-7" d="M25.32,139.65c-.22,.51-.36,1.06-.42,1.64-1.22-.27-2.46-.54-3.74-.82,.12-.59,.32-1.15,.59-1.67,1.22,.29,2.41,.58,3.57,.85Z"/><path class="cls-1" d="M24.78,146.06c.13,.5,.32,1.03,.58,1.58-.93-.16-1.89-.33-2.87-.5-.23-.57-.39-1.11-.48-1.62,.95,.19,1.88,.36,2.78,.54Z"/><path class="cls-4" d="M29.44,154.45c.49,.67,1.06,1.35,1.72,2.07-.99-.11-2.01-.22-3.06-.34-.65-.74-1.21-1.46-1.68-2.15,1.04,.14,2.04,.29,3.02,.42Z"/><path class="cls-4" d="M39.86,165.1c.88,.78,1.85,1.57,2.91,2.38-.93-.03-1.88-.06-2.87-.08-1.08-.85-2.06-1.69-2.95-2.5,1,.07,1.97,.13,2.91,.2Z"/><path class="cls-7" d="M56.4,176.72c2.28,1.51,4.7,3.05,7.25,4.59-1.42,.13-2.88,.27-4.41,.42-2.65-1.63-5.15-3.25-7.5-4.84,1.61-.06,3.16-.11,4.66-.16Z"/><path class="cls-4" d="M80.17,191.02c2.38,1.27,4.85,2.55,7.41,3.8-.88,.28-1.79,.57-2.74,.87-2.69-1.34-5.28-2.69-7.77-4.04,1.07-.22,2.11-.43,3.11-.63Z"/><path class="cls-7" d="M109.41,205.03c2.72,1.2,5.5,2.37,8.32,3.5-.52,.44-1.06,.9-1.62,1.38-2.98-1.2-5.91-2.45-8.79-3.73,.73-.4,1.43-.78,2.1-1.15Z"/><path class="cls-3" d="M141.46,217.43c3.19,1.13,6.37,2.21,9.55,3.23-.14,.65-.3,1.32-.45,2.02-3.37-1.08-6.74-2.23-10.13-3.42,.36-.63,.7-1.24,1.03-1.82Z"/><path class="cls-1" d="M172.1,226.53c4.21,1.14,8.34,2.19,12.37,3.13,.37,1.04,.75,2.11,1.15,3.24-4.26-.99-8.64-2.08-13.1-3.28-.15-1.07-.29-2.1-.42-3.09Z"/><path class="cls-7" d="M202.16,233.46c3.11,.55,6.09,1,8.94,1.36,.71,.93,1.45,1.9,2.21,2.9-3-.36-6.13-.81-9.41-1.37-.6-1-1.18-1.96-1.74-2.89Z"/><path class="cls-3" d="M228.77,237.06c.83,.04,1.6,.04,2.32,.03,.34,.31,.68,.63,1.04,.97-.75,.03-1.55,.03-2.41,0-.33-.34-.64-.68-.95-1Z"/><path class="cls-4" d="M243.66,235.57c1-.17,1.9-.37,2.71-.62,.68,.51,1.39,1.04,2.12,1.58-.82,.28-1.74,.53-2.76,.72-.71-.58-1.4-1.13-2.06-1.68Z"/><path class="cls-1" d="M254.54,231.94c.11-.07,.19-.14,.27-.23,.14,.09,.28,.18,.43,.27-.07,.09-.16,.17-.26,.25-.15-.1-.29-.2-.44-.3Z"/><path class="cls-7" d="M257.4,226.13c.06-.21,.08-.44,.07-.68,.3,.17,.61,.34,.93,.52,.03,.25,.01,.49-.04,.72-.33-.2-.65-.38-.97-.57Z"/><path class="cls-3" d="M255.94,219.42c-.16-.43-.36-.88-.62-1.34,.48,.24,.97,.48,1.47,.73,.28,.49,.52,.96,.7,1.42-.53-.28-1.05-.55-1.56-.81Z"/><path class="cls-1" d="M251.32,212.37c-.53-.7-1.12-1.41-1.78-2.14,.63,.28,1.28,.56,1.94,.85,.7,.76,1.34,1.51,1.92,2.25-.71-.33-1.4-.65-2.08-.96Z"/><path class="cls-1" d="M244.36,204.85c-.54-.51-1.11-1.03-1.71-1.54,.38,.15,.77,.3,1.17,.46,.64,.54,1.24,1.08,1.81,1.61-.43-.18-.86-.35-1.27-.52Z"/><path class="cls-4" d="M235.92,197.91c-.96-.74-1.96-1.49-2.99-2.24,.47,.16,.95,.32,1.43,.48,1.08,.77,2.12,1.55,3.13,2.33-.53-.19-1.06-.38-1.57-.57Z"/><path class="cls-3" d="M226.03,190.81c-.84-.56-1.69-1.12-2.57-1.69,.29,.08,.59,.16,.9,.25,.91,.58,1.8,1.16,2.67,1.74-.34-.1-.67-.2-.99-.3Z"/><path class="cls-7" d="M215.79,184.4c-1.07-.64-2.15-1.28-3.25-1.92,.27,.06,.55,.11,.83,.17,1.13,.65,2.26,1.31,3.36,1.97-.31-.08-.62-.15-.93-.22Z"/><path class="cls-1" d="M204.58,177.98c-.78-.43-1.57-.85-2.37-1.27,.14,.01,.28,.03,.42,.04,.82,.43,1.63,.87,2.43,1.3-.17-.02-.33-.05-.49-.07Z"/><path class="cls-2" d="M194.49,172.79c-1.56-.79-3.14-1.57-4.72-2.34,.18-.01,.37-.03,.56-.04,1.62,.79,3.24,1.59,4.84,2.39-.23,0-.45,0-.67,0Z"/><path class="cls-3" d="M102.77,139.41c-1.6-.38-3.18-.75-4.75-1.1-.48-.25-.96-.5-1.46-.75,1.61,.36,3.25,.74,4.89,1.14,.45,.24,.89,.48,1.32,.71Z"/><path class="cls-3" d="M91.74,136.93c-1.17-.24-2.32-.46-3.46-.67-.42-.2-.86-.41-1.29-.61,1.17,.22,2.37,.45,3.57,.7,.4,.2,.8,.39,1.19,.58Z"/><path class="cls-2" d="M82.36,135.28c-1.43-.23-2.85-.44-4.23-.63-.63-.28-1.27-.56-1.93-.84,1.44,.2,2.9,.42,4.39,.67,.6,.27,1.19,.54,1.78,.81Z"/><path class="cls-2" d="M71.34,133.71c-.78-.08-1.55-.16-2.3-.21-.42-.17-.85-.34-1.29-.52,.78,.06,1.58,.14,2.4,.23,.4,.17,.8,.34,1.19,.5Z"/><path class="cls-3" d="M62.84,133.2c-1.02-.04-2.02-.06-2.97-.05-.68-.25-1.37-.51-2.07-.77,1.01,0,2.05,.03,3.12,.08,.65,.25,1.29,.5,1.92,.75Z"/><path class="cls-1" d="M53.29,133.18c-.53,.03-1.04,.08-1.52,.13-.45-.15-.9-.31-1.37-.47,.51-.06,1.05-.1,1.61-.12,.43,.16,.86,.31,1.28,.46Z"/><path class="cls-7" d="M45.92,134.26c-.46,.1-.89,.21-1.28,.34-.52-.16-1.05-.33-1.6-.5,.43-.13,.89-.24,1.38-.33,.51,.17,1.01,.33,1.5,.49Z"/><path class="cls-4" d="M40.92,136.42c-.55,.29-1.04,.61-1.46,.96-.95-.26-1.93-.54-2.94-.81,.48-.35,1.02-.67,1.63-.96,.94,.28,1.86,.55,2.76,.81Z"/><path class="cls-1" d="M37.21,139.87c-.3,.46-.52,.95-.64,1.48-1.1-.26-2.22-.53-3.38-.81,.18-.54,.46-1.04,.82-1.5,1.1,.28,2.17,.56,3.21,.83Z"/><path class="cls-7" d="M36.49,144.79c.07,.71,.25,1.47,.55,2.28-1.33-.26-2.69-.53-4.1-.8-.25-.83-.38-1.61-.4-2.34,1.35,.29,2.66,.58,3.94,.86Z"/><path class="cls-1" d="M38.61,152.18c.24,.38,.52,.77,.87,1.18-.56-.08-1.13-.16-1.73-.25-.34-.43-.61-.84-.83-1.23,.58,.1,1.15,.19,1.69,.29Z"/><path class="cls-4" d="M46.58,160.2c1.1,1.06,2.34,2.17,3.72,3.3-1.27-.09-2.58-.18-3.93-.28-1.4-1.19-2.64-2.35-3.75-3.46,1.36,.15,2.68,.29,3.96,.43Z"/><path class="cls-3" d="M59.98,171.79c.63,.46,1.31,.92,2.05,1.39-.43,.01-.87,.03-1.33,.04-.76-.5-1.46-.99-2.11-1.46,.48,.01,.95,.02,1.4,.04Z"/><path class="cls-7" d="M77.57,181.89c2.79,1.61,5.72,3.23,8.79,4.84-1.15,.22-2.35,.46-3.6,.7-3.22-1.71-6.29-3.43-9.2-5.14,1.38-.14,2.72-.27,4-.4Z"/><path class="cls-2" d="M103.41,196.03c1.3,.62,2.64,1.23,4.01,1.83-.3,.16-.62,.33-.95,.5-1.45-.64-2.86-1.29-4.23-1.95,.41-.13,.8-.26,1.18-.39Z"/><path class="cls-4" d="M127.61,205.39c4.4,1.74,8.85,3.42,13.31,5.01-.42,.71-.87,1.45-1.33,2.23-4.74-1.7-9.47-3.48-14.14-5.34,.75-.66,1.47-1.29,2.16-1.89Z"/><path class="cls-2" d="M158.99,216.99c2.56,.82,5.1,1.58,7.59,2.27,.06,.51,.12,1.04,.19,1.58-2.65-.73-5.34-1.54-8.07-2.4,.1-.5,.2-.99,.29-1.45Z"/><path class="cls-2" d="M186.3,224.26c2.5,.59,4.92,1.11,7.25,1.55,.35,.59,.72,1.22,1.1,1.86-2.46-.46-5.03-1-7.67-1.62-.23-.62-.46-1.22-.67-1.8Z"/><path class="cls-7" d="M210.71,228.75c1.62,.22,3.14,.39,4.57,.49,.44,.47,.9,.96,1.37,1.46-1.5-.1-3.1-.25-4.8-.47-.4-.51-.78-1-1.14-1.47Z"/><path class="cls-3" d="M228.61,229.68c1.26,0,2.4-.07,3.45-.18,.57,.46,1.15,.95,1.76,1.44-1.08,.14-2.27,.22-3.57,.25-.57-.52-1.11-1.02-1.64-1.51Z"/><path class="cls-3" d="M240.86,227.93c.75-.19,1.41-.43,1.96-.71,.57,.39,1.16,.79,1.77,1.21-.56,.31-1.22,.58-1.99,.8-.6-.45-1.18-.88-1.75-1.3Z"/><path class="cls-4" d="M247.6,224.05c.29-.28,.51-.58,.66-.9,.46,.27,.94,.55,1.43,.84-.14,.35-.35,.68-.63,.98-.5-.32-.99-.62-1.46-.92Z"/><path class="cls-2" d="M248.62,218.89c.05-.73-.04-1.5-.25-2.3,.89,.46,1.8,.94,2.74,1.43,.26,.86,.4,1.69,.39,2.47-.98-.55-1.94-1.08-2.88-1.6Z"/><path class="cls-1" d="M246.93,212.85c-.4-.8-.9-1.63-1.49-2.48,.77,.36,1.56,.73,2.37,1.1,.66,.9,1.21,1.78,1.66,2.63-.87-.43-1.72-.85-2.55-1.26Z"/><path class="cls-2" d="M242.32,206.48c-.82-.96-1.75-1.94-2.74-2.93,.75,.31,1.53,.63,2.32,.96,1.07,1.04,2.05,2.07,2.94,3.08-.86-.38-1.7-.75-2.52-1.11Z"/><path class="cls-3" d="M235.25,199.28c-.43-.38-.89-.76-1.37-1.15,.25,.09,.5,.18,.76,.27,.51,.4,.99,.8,1.45,1.2-.29-.11-.56-.22-.84-.32Z"/><path class="cls-3" d="M227.56,193.47c-1.33-.98-2.72-1.97-4.16-2.96,.54,.17,1.08,.33,1.64,.5,1.5,1.02,2.96,2.05,4.35,3.07-.62-.21-1.23-.41-1.83-.61Z"/><path class="cls-1" d="M217.46,186.45c-.55-.35-1.11-.71-1.69-1.06,.16,.04,.32,.08,.48,.12,.6,.36,1.18,.73,1.75,1.09-.18-.05-.37-.1-.55-.15Z"/><path class="cls-3" d="M207.05,180.16c-.2-.12-.4-.23-.61-.35,.04,0,.08,.01,.12,.02,.21,.12,.42,.24,.63,.36-.05,0-.1-.02-.14-.03Z"/><path class="cls-2" d="M196.73,174.56c-.26-.14-.53-.28-.8-.42,.04,0,.07,0,.11,0,.28,.14,.55,.28,.83,.43-.05,0-.09,0-.13-.01Z"/><path class="cls-2" d="M110.75,142.18c-1.74-.45-3.47-.87-5.18-1.28-.46-.24-.92-.49-1.39-.74,1.76,.42,3.54,.86,5.33,1.32,.42,.24,.83,.47,1.24,.7Z"/><path class="cls-1" d="M99.25,139.37c-.83-.18-1.64-.35-2.44-.51-.26-.13-.53-.26-.81-.39,.83,.17,1.67,.34,2.52,.53,.25,.13,.49,.25,.72,.37Z"/><path class="cls-2" d="M88.99,137.33c-.47-.08-.93-.16-1.38-.23-.18-.08-.37-.17-.56-.25,.47,.07,.95,.15,1.44,.24,.17,.08,.34,.16,.51,.24Z"/><path class="cls-3" d="M81.24,136.29c-1.14-.15-2.25-.28-3.32-.38-.54-.22-1.08-.45-1.64-.69,1.12,.11,2.28,.25,3.47,.41,.51,.22,1.01,.44,1.5,.66Z"/><path class="cls-7" d="M72.8,135.51c-1.21-.08-2.38-.14-3.5-.16-.7-.27-1.42-.55-2.15-.83,1.18,.04,2.41,.1,3.68,.2,.67,.27,1.33,.54,1.97,.8Z"/><path class="cls-4" d="M63.16,135.14c-.49,0-.96,.03-1.41,.07-.36-.13-.73-.26-1.11-.4,.47-.03,.97-.05,1.49-.06,.35,.13,.69,.26,1.02,.38Z"/><path class="cls-7" d="M56.88,135.9c-.71,.11-1.38,.24-1.99,.41-.69-.23-1.4-.46-2.13-.69,.66-.16,1.38-.29,2.14-.39,.67,.23,1.33,.46,1.98,.68Z"/><path class="cls-1" d="M49.63,137.53c-.14,.06-.27,.12-.38,.19-.2-.06-.41-.12-.62-.18,.12-.07,.26-.14,.42-.19,.2,.06,.39,.12,.58,.18Z"/><path class="cls-4" d="M48.03,140.15c-.53,.54-.93,1.14-1.2,1.79-1.35-.35-2.73-.7-4.15-1.07,.35-.66,.82-1.27,1.44-1.81,1.34,.37,2.64,.74,3.92,1.09Z"/><path class="cls-3" d="M44.98,144.55c-.03,.3,0,.62,.09,.96-.56-.12-1.14-.25-1.74-.38-.07-.35-.07-.68,0-.99,.57,.14,1.12,.27,1.66,.4Z"/><path class="cls-2" d="M47.76,149.36c.56,1.18,1.33,2.44,2.31,3.76-1.76-.3-3.58-.6-5.47-.92-.94-1.37-1.66-2.67-2.16-3.9,1.83,.36,3.6,.71,5.32,1.05Z"/><path class="cls-2" d="M52.62,156.69c1.09,1.2,2.36,2.44,3.82,3.74-1.43-.15-2.91-.31-4.43-.47-1.47-1.36-2.74-2.66-3.81-3.91,1.53,.22,3,.43,4.43,.64Z"/><path class="cls-2" d="M62.78,166.63c.63,.49,1.32,1,2.09,1.52-.47,0-.96-.02-1.47-.03-.78-.55-1.5-1.09-2.14-1.6,.53,.04,1.03,.08,1.52,.11Z"/><path class="cls-4" d="M78,176.87c1.02,.64,2.11,1.28,3.27,1.93-.47,.05-.96,.1-1.47,.16-1.21-.69-2.35-1.37-3.41-2.04,.56-.01,1.09-.03,1.61-.04Z"/><path class="cls-2" d="M98.67,188.43c.65,.34,1.33,.67,2.03,1-.18,.06-.37,.12-.56,.19-.74-.35-1.46-.71-2.14-1.06,.23-.04,.46-.09,.67-.12Z"/><path class="cls-3" d="M121.1,198.28c2.03,.88,4.11,1.73,6.21,2.56-.29,.26-.58,.54-.89,.82-2.24-.88-4.45-1.79-6.6-2.73,.44-.22,.87-.44,1.28-.65Z"/><path class="cls-2" d="M145.48,207.4c3.09,1.11,6.17,2.15,9.23,3.12-.09,.5-.17,1.02-.27,1.56-3.26-1.03-6.54-2.14-9.83-3.32,.3-.47,.59-.92,.87-1.36Z"/><path class="cls-2" d="M169.17,214.56c4.18,1.19,8.26,2.27,12.22,3.21,.32,.81,.65,1.66,1,2.54-4.21-.99-8.55-2.13-13-3.39-.08-.82-.15-1.61-.22-2.36Z"/><path class="cls-3" d="M192.24,220.14c3.79,.77,7.41,1.4,10.82,1.89,.7,.88,1.43,1.8,2.18,2.76-3.61-.5-7.44-1.14-11.45-1.94-.54-.94-1.06-1.84-1.55-2.71Z"/><path class="cls-1" d="M212.04,223.15c2.84,.27,5.47,.41,7.89,.44,.89,.81,1.82,1.66,2.78,2.53-2.52,0-5.29-.12-8.27-.38-.83-.9-1.63-1.76-2.4-2.6Z"/><path class="cls-7" d="M229.11,223.91c.84-.06,1.59-.16,2.25-.31,.42,.31,.86,.64,1.32,.97-.67,.17-1.45,.29-2.32,.37-.43-.36-.85-.7-1.25-1.03Z"/><path class="cls-7" d="M237.73,221.57c.58-.23,1.07-.5,1.45-.81,.51,.32,1.04,.65,1.58,.99-.38,.34-.86,.64-1.45,.9-.54-.37-1.07-.73-1.58-1.08Z"/><path class="cls-4" d="M241.93,217.63c.24-.36,.39-.76,.45-1.19,.51,.28,1.04,.57,1.58,.87-.03,.46-.16,.89-.39,1.29-.56-.34-1.11-.66-1.64-.98Z"/><path class="cls-4" d="M242.16,212.67c-.08-.56-.27-1.16-.55-1.77,.59,.29,1.2,.59,1.83,.9,.32,.66,.55,1.29,.66,1.9-.67-.35-1.31-.69-1.94-1.02Z"/><path class="cls-7" d="M239.6,206.62c-.12-.19-.26-.38-.43-.58,.16,.07,.32,.14,.48,.21,.18,.21,.34,.42,.47,.61-.18-.08-.35-.17-.53-.25Z"/><path class="cls-2" d="M234.46,201.18c-.77-.8-1.62-1.62-2.54-2.45,.55,.21,1.12,.43,1.7,.65,.98,.87,1.89,1.73,2.72,2.57-.64-.27-1.26-.52-1.87-.78Z"/><path class="cls-7" d="M227.08,194.37c-.16-.13-.34-.27-.52-.41,.08,.03,.15,.05,.23,.08,.19,.14,.38,.28,.55,.42-.09-.03-.18-.06-.26-.1Z"/><path class="cls-1" d="M218.97,188.53c-.37-.26-.76-.52-1.17-.79,.12,.03,.25,.07,.38,.1,.42,.27,.83,.54,1.22,.82-.15-.04-.29-.09-.43-.13Z"/><path class="cls-4" d="M211.04,183.57c-1.4-.86-2.83-1.72-4.3-2.58,.33,.07,.66,.13,.99,.2,1.53,.89,3.01,1.78,4.46,2.67-.4-.1-.78-.19-1.16-.28Z"/><path class="cls-2" d="M201.07,177.71c-1.01-.57-2.05-1.13-3.1-1.69,.16,.01,.33,.03,.5,.05,1.09,.58,2.16,1.16,3.2,1.74-.21-.03-.41-.06-.61-.1Z"/><path class="cls-7" d="M191.9,172.88c-1.55-.8-3.12-1.58-4.71-2.36,.16-.02,.33-.03,.49-.05,1.64,.8,3.26,1.61,4.85,2.43-.22,0-.43-.01-.64-.02Z"/><path class="cls-2" d="M108.35,142.3c-1.68-.4-3.34-.78-4.97-1.13-.47-.24-.95-.48-1.44-.73,1.69,.36,3.4,.75,5.14,1.17,.43,.23,.86,.46,1.27,.69Z"/><path class="cls-3" d="M96.49,139.6c-.28-.06-.56-.11-.83-.15-.1-.05-.2-.09-.3-.14,.28,.05,.57,.1,.87,.16,.09,.04,.18,.09,.26,.13Z"/><path class="cls-2" d="M88.18,138.27c-.55-.09-1.09-.16-1.61-.22-.23-.1-.46-.2-.7-.31,.55,.07,1.11,.15,1.68,.24,.22,.1,.43,.19,.63,.29Z"/><path class="cls-1" d="M82.58,137.84c-1.79-.17-3.51-.3-5.17-.38-.91-.37-1.84-.74-2.79-1.12,1.74,.1,3.56,.25,5.43,.43,.86,.37,1.71,.72,2.54,1.07Z"/><path class="cls-2" d="M73.75,137.22c-1.23-.03-2.39-.01-3.49,.04-.78-.29-1.58-.59-2.4-.89,1.17-.04,2.41-.05,3.7,0,.75,.29,1.48,.58,2.19,.86Z"/><path class="cls-1" d="M65.88,137.42c-.74,.07-1.43,.17-2.06,.3-.61-.21-1.24-.42-1.88-.64,.68-.12,1.42-.22,2.21-.28,.59,.21,1.17,.42,1.73,.62Z"/><path class="cls-1" d="M61.8,138.61c-1.15,.33-2.17,.72-3.05,1.18-1.33-.41-2.69-.83-4.08-1.26,.99-.46,2.1-.84,3.35-1.16,1.29,.43,2.56,.84,3.79,1.25Z"/><path class="cls-2" d="M55.18,140.83c-.24,.17-.43,.36-.56,.58-.45-.12-.91-.25-1.39-.38,.17-.22,.38-.41,.65-.58,.44,.13,.88,.26,1.3,.39Z"/><path class="cls-7" d="M54.8,143.78c-.27,.77-.35,1.62-.25,2.55-1.51-.36-3.06-.73-4.67-1.1-.03-.95,.14-1.82,.5-2.6,1.52,.4,2.99,.78,4.42,1.16Z"/><path class="cls-7" d="M54.1,148.81c.15,.49,.4,1.01,.75,1.57-.74-.14-1.51-.29-2.3-.44-.33-.58-.55-1.12-.67-1.63,.76,.17,1.5,.33,2.22,.5Z"/><path class="cls-4" d="M57.9,154.97c.43,.56,.97,1.15,1.61,1.77-.68-.09-1.38-.19-2.11-.29-.64-.65-1.17-1.27-1.59-1.85,.72,.13,1.42,.25,2.09,.37Z"/><path class="cls-1" d="M65.44,161.7c1.42,1.24,3.04,2.53,4.86,3.85-1.2-.08-2.45-.16-3.75-.24-1.87-1.4-3.52-2.75-4.96-4.05,1.33,.15,2.61,.3,3.84,.44Z"/><path class="cls-4" d="M76.58,169.77c2.62,1.77,5.47,3.58,8.56,5.41-1.35,.06-2.76,.11-4.22,.17-3.22-1.94-6.2-3.86-8.9-5.73,1.58,.05,3.1,.11,4.56,.16Z"/><path class="cls-4" d="M92.14,179.24c3.38,1.89,6.97,3.78,10.75,5.66-1.08,.23-2.2,.47-3.38,.72-3.98-2-7.76-4.02-11.32-6.03,1.37-.12,2.68-.24,3.94-.35Z"/><path class="cls-1" d="M114.21,191.04c1.67,.79,3.41,1.56,5.19,2.31-.3,.17-.62,.35-.94,.54-1.89-.8-3.73-1.62-5.51-2.47,.44-.13,.86-.26,1.26-.38Z"/><path class="cls-4" d="M134.63,199.17c3.5,1.39,7.05,2.71,10.6,3.95-.25,.46-.5,.95-.77,1.45-3.79-1.33-7.56-2.74-11.29-4.22,.51-.41,1-.81,1.46-1.18Z"/><path class="cls-3" d="M158.04,207.46c3.4,1.11,6.77,2.13,10.06,3.05,.09,.55,.18,1.12,.28,1.72-3.51-.98-7.1-2.06-10.73-3.24,.14-.53,.26-1.04,.39-1.53Z"/><path class="cls-4" d="M183.76,215.05c1.06,.27,2.09,.5,3.07,.69,.13,.2,.26,.42,.4,.64-1.04-.2-2.13-.44-3.26-.73-.07-.21-.14-.41-.2-.61Z"/><path class="cls-1" d="M200.99,218.02c2.05,.34,3.97,.59,5.75,.76,.46,.47,.93,.96,1.42,1.48-1.88-.16-3.91-.41-6.07-.76-.38-.51-.75-1-1.1-1.48Z"/><path class="cls-1" d="M216,219.36c1.83,.08,3.48,.08,4.96-.03,.65,.52,1.32,1.07,2.02,1.63-1.54,.13-3.26,.16-5.17,.09-.63-.59-1.23-1.15-1.8-1.7Z"/><path class="cls-1" d="M229.04,218.93c.35-.05,.65-.13,.9-.22,.2,.13,.4,.27,.62,.42-.25,.11-.56,.19-.92,.26-.21-.16-.4-.3-.59-.45Z"/><path class="cls-4" d="M233.62,216.13c.76-.44,1.33-.96,1.72-1.54,.78,.46,1.58,.93,2.41,1.42-.37,.64-.94,1.2-1.69,1.7-.84-.54-1.66-1.06-2.45-1.57Z"/><path class="cls-4" d="M237.45,212.06c.04-.13,.05-.28,.03-.43,.16,.08,.32,.17,.49,.25,.03,.17,.03,.32,0,.47-.18-.1-.35-.19-.51-.29Z"/><path class="cls-2" d="M236.15,207.35c-.15-.44-.37-.9-.67-1.38,.4,.18,.81,.37,1.23,.57,.34,.51,.59,1,.77,1.47-.45-.23-.9-.45-1.32-.66Z"/><path class="cls-4" d="M232.73,202.26c-.56-.74-1.21-1.5-1.96-2.27,.54,.22,1.09,.45,1.66,.68,.81,.82,1.52,1.62,2.13,2.41-.62-.28-1.23-.55-1.83-.81Z"/><path class="cls-3" d="M227.27,196.42c-.52-.5-1.1-1-1.73-1.51,.3,.11,.6,.22,.92,.33,.66,.54,1.28,1.07,1.84,1.59-.35-.14-.69-.27-1.03-.4Z"/><path class="cls-1" d="M220.18,190.61c-.45-.34-.92-.69-1.42-1.04,.17,.05,.34,.1,.52,.16,.53,.36,1.03,.73,1.5,1.09-.2-.07-.4-.14-.6-.2Z"/><path class="cls-3" d="M212.87,185.64c-1.15-.77-2.35-1.54-3.6-2.3,.31,.07,.62,.15,.94,.22,1.3,.8,2.56,1.6,3.76,2.39-.38-.11-.74-.21-1.1-.31Z"/><path class="cls-7" d="M204.47,180.44c-1.4-.84-2.86-1.67-4.34-2.5,.26,.04,.53,.08,.81,.12,1.54,.86,3.05,1.72,4.51,2.58-.33-.07-.65-.13-.97-.2Z"/><path class="cls-1" d="M194.89,175.04c-1.09-.59-2.2-1.17-3.34-1.75,.14,0,.28,0,.42,0,1.17,.6,2.32,1.2,3.45,1.81-.18-.02-.36-.04-.53-.06Z"/><path class="cls-2" d="M116.04,144.89c-2.17-.55-4.3-1.07-6.39-1.55-.53-.28-1.07-.57-1.62-.86,2.17,.5,4.38,1.04,6.61,1.61,.48,.27,.95,.54,1.41,.8Z"/><path class="cls-1" d="M105.24,142.26c-1.09-.24-2.17-.46-3.22-.66-.33-.16-.66-.32-1.01-.49,1.09,.21,2.2,.44,3.34,.69,.3,.16,.6,.31,.88,.46Z"/><path class="cls-3" d="M95.79,140.41c-.62-.11-1.22-.21-1.81-.29-.23-.1-.46-.21-.69-.31,.61,.09,1.24,.19,1.88,.3,.21,.1,.42,.2,.62,.29Z"/><path class="cls-7" d="M87.32,139.22c-.44-.05-.87-.1-1.28-.13-.2-.08-.4-.17-.61-.25,.43,.04,.88,.08,1.34,.14,.19,.08,.37,.16,.54,.24Z"/><path class="cls-7" d="M82.15,139.06c-1.47-.08-2.87-.12-4.19-.1-.81-.31-1.65-.64-2.51-.96,1.4,0,2.88,.04,4.43,.14,.77,.32,1.53,.62,2.27,.93Z"/><path class="cls-7" d="M75.73,139.07c-1.49,.06-2.88,.18-4.15,.37-1.06-.38-2.14-.76-3.25-1.15,1.37-.18,2.85-.29,4.44-.33,1.01,.38,2,.75,2.96,1.12Z"/><path class="cls-3" d="M67.01,139.65c-.24,.05-.46,.11-.65,.18-.23-.07-.47-.15-.71-.23,.21-.07,.44-.13,.7-.18,.22,.08,.44,.15,.66,.23Z"/><path class="cls-1" d="M64.88,141.28c-.81,.41-1.47,.89-1.98,1.43-1.18-.34-2.4-.7-3.65-1.06,.59-.55,1.35-1.03,2.24-1.44,1.16,.37,2.29,.72,3.39,1.07Z"/><path class="cls-3" d="M60.13,144.24c-.08,.12-.13,.26-.14,.41-.25-.06-.51-.13-.78-.2,.03-.16,.09-.3,.18-.42,.25,.07,.5,.14,.73,.21Z"/><path class="cls-3" d="M60.91,147.72c.06,.63,.28,1.33,.65,2.08-1-.21-2.03-.43-3.09-.66-.34-.77-.51-1.49-.53-2.14,1.02,.25,2,.49,2.96,.72Z"/><path class="cls-2" d="M63.37,152.32c.71,1.15,1.67,2.38,2.87,3.69-1.43-.24-2.91-.48-4.44-.73-1.19-1.36-2.12-2.64-2.79-3.84,1.5,.3,2.96,.59,4.37,.88Z"/><path class="cls-1" d="M68.6,158.58c1.34,1.31,2.92,2.69,4.73,4.12-1.31-.13-2.66-.27-4.06-.41-1.85-1.51-3.45-2.96-4.79-4.33,1.42,.21,2.8,.42,4.12,.62Z"/><path class="cls-1" d="M77.39,165.71c2.28,1.68,4.82,3.42,7.63,5.19-1.32-.02-2.7-.04-4.14-.06-2.92-1.88-5.56-3.72-7.9-5.49,1.53,.12,3,.24,4.41,.36Z"/><path class="cls-3" d="M90.05,174.05c3.04,1.83,6.33,3.68,9.84,5.54-1.11,.13-2.26,.27-3.47,.42-3.69-1.98-7.15-3.95-10.32-5.89,1.37-.02,2.69-.04,3.95-.06Z"/><path class="cls-3" d="M107.25,183.65c2.89,1.46,5.92,2.91,9.07,4.33-.63,.23-1.29,.47-1.97,.72-3.35-1.51-6.56-3.06-9.61-4.63,.87-.15,1.71-.29,2.51-.43Z"/><path class="cls-4" d="M124.99,191.51c4.54,1.96,9.2,3.85,13.92,5.64-.49,.49-1,1.01-1.54,1.55-5.03-1.92-9.99-3.94-14.83-6.04,.85-.4,1.67-.79,2.45-1.15Z"/><path class="cls-3" d="M145.78,199.72c4.7,1.7,9.39,3.29,14.03,4.75-.08,.63-.15,1.29-.23,1.98-4.95-1.55-9.97-3.25-14.98-5.07,.42-.58,.81-1.13,1.19-1.66Z"/><path class="cls-7" d="M168.58,207.33c3.33,.98,6.57,1.86,9.69,2.61,.23,.54,.47,1.09,.72,1.68-3.33-.8-6.79-1.72-10.34-2.76-.03-.53-.05-1.04-.07-1.52Z"/><path class="cls-7" d="M186.78,211.77c3.63,.8,7.08,1.45,10.31,1.95,.57,.69,1.16,1.42,1.77,2.17-3.42-.51-7.08-1.18-10.94-2.02-.4-.73-.77-1.43-1.14-2.1Z"/><path class="cls-2" d="M207.29,215.64c.74,.09,1.41,.15,2.02,.17,.19,.17,.39,.35,.59,.53-.64-.01-1.35-.07-2.13-.16-.17-.19-.33-.37-.49-.54Z"/><path class="cls-1" d="M218.54,215.77c.97-.01,1.83-.08,2.57-.21,.39,.28,.8,.58,1.21,.88-.76,.15-1.65,.24-2.67,.26-.39-.32-.76-.64-1.11-.94Z"/><path class="cls-1" d="M224.73,214.15c1.54-.4,2.8-.92,3.77-1.56,1,.62,2.04,1.27,3.11,1.94-.97,.71-2.26,1.29-3.83,1.74-1.06-.74-2.07-1.44-3.05-2.12Z"/><path class="cls-3" d="M231.79,211.35c.1-.09,.16-.19,.19-.31,.13,.07,.26,.14,.4,.22-.02,.12-.09,.24-.18,.33-.14-.08-.28-.17-.41-.25Z"/><path class="cls-2" d="M231.56,207.81c.05-.86-.12-1.79-.49-2.78,.87,.42,1.78,.86,2.7,1.31,.44,1.06,.66,2.07,.66,3-.99-.52-1.95-1.03-2.88-1.53Z"/><path class="cls-1" d="M230.28,203.45c-.55-1.11-1.32-2.29-2.28-3.5,.88,.38,1.79,.77,2.72,1.18,1.05,1.29,1.9,2.54,2.53,3.73-1.02-.48-2.01-.95-2.97-1.4Z"/><path class="cls-2" d="M226.66,198.09c-.69-.79-1.49-1.6-2.39-2.43,.5,.19,1.02,.39,1.55,.59,.97,.88,1.83,1.74,2.58,2.57-.59-.25-1.17-.49-1.74-.73Z"/><path class="cls-4" d="M221.42,193.19c-1.21-1.05-2.54-2.12-3.97-3.2,.55,.18,1.11,.36,1.69,.55,1.51,1.13,2.92,2.25,4.21,3.36-.66-.24-1.3-.48-1.93-.71Z"/><path class="cls-1" d="M214.84,188.07c-1.52-1.11-3.14-2.22-4.85-3.34,.47,.13,.95,.25,1.45,.39,1.79,1.17,3.48,2.33,5.09,3.48-.58-.18-1.14-.36-1.69-.53Z"/><path class="cls-2" d="M205.88,181.95c-.52-.33-1.07-.67-1.63-1,.11,.02,.23,.04,.35,.07,.59,.34,1.16,.69,1.71,1.04-.14-.04-.28-.07-.42-.1Z"/><path class="cls-3" d="M197.18,176.84c-.39-.22-.79-.45-1.21-.67h.18c.43,.24,.85,.47,1.25,.71-.08-.01-.15-.03-.22-.04Z"/><path class="cls-4" d="M189.74,172.94c-1.53-.8-3.09-1.59-4.68-2.37,.14-.02,.29-.03,.44-.05,1.64,.8,3.26,1.62,4.85,2.44-.21,0-.41-.02-.6-.02Z"/><path class="cls-2" d="M113.88,144.96c-2.2-.52-4.36-1-6.46-1.44-.58-.29-1.17-.59-1.78-.9,2.19,.45,4.43,.96,6.71,1.5,.52,.28,1.03,.56,1.53,.83Z"/><path class="cls-7" d="M103.02,142.52c-.82-.16-1.62-.3-2.39-.43-.26-.12-.53-.25-.81-.38,.81,.13,1.64,.28,2.49,.45,.24,.12,.48,.24,.71,.35Z"/><path class="cls-7" d="M96.79,141.6c-1.62-.24-3.17-.44-4.66-.59-.64-.27-1.28-.55-1.95-.84,1.56,.17,3.19,.38,4.88,.64,.59,.27,1.16,.53,1.72,.79Z"/><path class="cls-3" d="M88.1,140.53c-.93-.08-1.83-.13-2.66-.15-.45-.18-.92-.37-1.39-.56,.89,.03,1.83,.09,2.81,.18,.42,.18,.84,.36,1.25,.53Z"/><path class="cls-2" d="M81.01,140.28c-.69,0-1.34,.02-1.93,.08-.42-.16-.86-.32-1.3-.48,.64-.05,1.33-.07,2.06-.06,.4,.16,.79,.31,1.18,.46Z"/><path class="cls-1" d="M77.32,140.88c-1.42,.17-2.7,.43-3.82,.75-1.14-.38-2.32-.78-3.52-1.19,1.23-.32,2.61-.57,4.13-.73,1.1,.4,2.17,.79,3.21,1.16Z"/><path class="cls-1" d="M70.15,142.04c-.32,.11-.59,.25-.81,.42-.38-.11-.76-.23-1.16-.35,.24-.17,.55-.31,.9-.42,.37,.12,.72,.24,1.07,.36Z"/><path class="cls-2" d="M67.04,144.27c-.17,.16-.29,.35-.35,.56-.36-.1-.73-.2-1.11-.3,.08-.22,.23-.41,.43-.57,.36,.11,.7,.21,1.04,.31Z"/><path class="cls-1" d="M67.49,146.89c-.12,.85,0,1.79,.35,2.82-1.39-.32-2.83-.66-4.32-1.01-.3-1.07-.34-2.03-.14-2.9,1.41,.37,2.78,.73,4.11,1.09Z"/><path class="cls-2" d="M67.42,152.08c.06,.14,.16,.29,.29,.45-.18-.03-.36-.07-.55-.1-.12-.17-.22-.32-.27-.47,.19,.04,.37,.08,.54,.12Z"/><path class="cls-7" d="M71.91,156.91c.67,.76,1.5,1.58,2.5,2.43-.78-.1-1.6-.21-2.44-.32-1.01-.9-1.84-1.75-2.51-2.55,.84,.15,1.66,.3,2.45,.44Z"/><path class="cls-1" d="M79.19,163.36c1.15,.94,2.48,1.92,3.97,2.93-.77-.05-1.56-.09-2.39-.14-1.55-1.07-2.91-2.1-4.09-3.09,.87,.1,1.7,.2,2.51,.3Z"/><path class="cls-2" d="M89.05,169.92c2.57,1.67,5.39,3.38,8.46,5.11-1.06,.05-2.17,.11-3.33,.17-3.22-1.84-6.18-3.65-8.85-5.42,1.29,.05,2.53,.1,3.72,.15Z"/><path class="cls-2" d="M104.06,179.06c2,1.09,4.14,2.18,6.39,3.26-.51,.12-1.05,.24-1.61,.37-2.38-1.15-4.64-2.32-6.75-3.48,.69-.05,1.34-.1,1.98-.15Z"/><path class="cls-2" d="M122.07,188.04c1.48,.69,3.02,1.36,4.6,2.01-.21,.13-.43,.27-.67,.41-1.68-.69-3.32-1.41-4.9-2.15,.33-.09,.65-.18,.96-.27Z"/><path class="cls-2" d="M137.22,193.71c4.54,1.81,9.14,3.51,13.74,5.1-.24,.51-.48,1.05-.75,1.61-4.91-1.69-9.82-3.52-14.67-5.45,.58-.43,1.14-.85,1.67-1.25Z"/><path class="cls-1" d="M159.61,202.08c2.46,.82,4.89,1.56,7.26,2.22,.07,.34,.14,.69,.21,1.05-2.52-.7-5.12-1.49-7.75-2.36,.1-.32,.19-.62,.28-.91Z"/><path class="cls-4" d="M180.17,208.03c1.2,.32,2.36,.59,3.45,.81,.13,.19,.26,.4,.4,.61-1.16-.23-2.4-.52-3.68-.85-.06-.2-.12-.38-.17-.56Z"/><path class="cls-3" d="M192.68,210.16c3.33,.62,6.43,1.07,9.27,1.37,.62,.64,1.28,1.3,1.96,1.99-3-.29-6.28-.75-9.82-1.4-.49-.68-.96-1.34-1.41-1.96Z"/><path class="cls-1" d="M206.26,211.9c2.77,.22,5.24,.29,7.42,.19,.81,.64,1.66,1.31,2.53,2.01-2.27,.14-4.88,.1-7.79-.12-.75-.72-1.47-1.42-2.17-2.08Z"/><path class="cls-3" d="M217.58,212.02c1.49-.12,2.75-.35,3.78-.69,.67,.45,1.37,.91,2.09,1.39-1.05,.38-2.36,.64-3.9,.8-.68-.52-1.34-1.02-1.97-1.5Z"/><path class="cls-3" d="M224.59,210.32c.67-.28,1.18-.62,1.53-1.03,.51,.3,1.05,.61,1.6,.93-.34,.45-.84,.83-1.53,1.14-.55-.36-1.08-.7-1.6-1.04Z"/><path class="cls-3" d="M226.67,207.54c.5-.8,.72-1.7,.66-2.7,.94,.48,1.92,.98,2.92,1.5,.12,1.07-.06,2.05-.53,2.92-1.05-.59-2.06-1.17-3.05-1.72Z"/><path class="cls-4" d="M227.38,203.66c-.14-.8-.48-1.65-1-2.56,.69,.32,1.41,.64,2.14,.98,.59,.97,.98,1.88,1.17,2.74-.79-.4-1.57-.79-2.31-1.16Z"/><path class="cls-4" d="M225.25,199.3c-.59-.91-1.35-1.86-2.27-2.85,.62,.25,1.27,.51,1.92,.78,.99,1.05,1.83,2.06,2.48,3.02-.73-.33-1.45-.65-2.13-.95Z"/><path class="cls-1" d="M221.1,194.44c-.83-.84-1.78-1.71-2.85-2.6,.47,.17,.95,.34,1.45,.51,1.13,.93,2.16,1.85,3.05,2.74-.56-.22-1.11-.44-1.65-.65Z"/><path class="cls-2" d="M215.5,189.6c-1.11-.9-2.33-1.81-3.63-2.73,.41,.12,.82,.24,1.25,.37,1.37,.96,2.66,1.92,3.84,2.86-.5-.17-.99-.34-1.46-.5Z"/><path class="cls-2" d="M208,184.09c-.62-.42-1.27-.85-1.96-1.28,.15,.04,.31,.07,.47,.11,.72,.44,1.41,.89,2.06,1.33-.19-.06-.38-.11-.57-.16Z"/><path class="cls-4" d="M201.66,180.21c-1.8-1.09-3.68-2.19-5.62-3.28,.31,.04,.63,.09,.95,.13,2.02,1.13,3.98,2.27,5.86,3.4-.41-.09-.81-.17-1.2-.26Z"/><path class="cls-1" d="M193.87,175.75c-2.14-1.17-4.34-2.34-6.6-3.5,.24,0,.49,0,.74,0,2.34,1.2,4.63,2.41,6.85,3.62-.34-.04-.67-.08-1-.12Z"/><path class="cls-1" d="M118.64,146.63c-1.5-.38-2.97-.74-4.41-1.06-.34-.18-.7-.37-1.06-.56,1.49,.33,3.02,.7,4.57,1.1,.31,.17,.6,.35,.9,.51Z"/><path class="cls-4" d="M108.42,144.2c-.33-.07-.66-.14-.98-.2-.09-.05-.19-.09-.29-.14,.33,.06,.67,.13,1.02,.2,.08,.04,.17,.09,.25,.13Z"/><path class="cls-2" d="M102.24,143.17c-1.12-.19-2.2-.36-3.23-.49-.38-.17-.78-.35-1.19-.53,1.08,.14,2.22,.31,3.38,.52,.35,.17,.7,.33,1.04,.5Z"/><path class="cls-1" d="M93.63,141.94c-.42-.05-.82-.08-1.19-.1-.18-.07-.36-.15-.55-.23,.4,.02,.82,.06,1.26,.12,.17,.07,.33,.15,.48,.21Z"/><path class="cls-7" d="M88.66,141.79c-1.14-.05-2.21-.05-3.2,0-.61-.23-1.23-.47-1.86-.71,1.05-.04,2.18-.02,3.4,.04,.57,.23,1.12,.46,1.66,.68Z"/><path class="cls-3" d="M81.73,141.85c-.58,.04-1.1,.1-1.56,.2-.39-.14-.8-.28-1.21-.43,.5-.09,1.06-.16,1.68-.19,.37,.14,.74,.28,1.09,.42Z"/><path class="cls-4" d="M78.22,142.75c-.93,.22-1.73,.51-2.38,.87-.88-.28-1.78-.57-2.71-.87,.73-.36,1.6-.65,2.62-.87,.85,.3,1.68,.59,2.48,.87Z"/><path class="cls-4" d="M72.79,144.55c-.11,.07-.19,.15-.24,.24-.17-.05-.34-.1-.51-.15,.06-.1,.16-.18,.28-.25,.16,.05,.32,.1,.47,.15Z"/><path class="cls-3" d="M72.76,146.75c-.29,.63-.36,1.35-.23,2.15-1.1-.28-2.25-.57-3.43-.86-.08-.82,.06-1.56,.42-2.21,1.11,.31,2.18,.62,3.23,.92Z"/><path class="cls-1" d="M72.68,150.28c.18,.75,.57,1.59,1.18,2.49-1.01-.21-2.06-.43-3.15-.66-.58-.94-.93-1.8-1.06-2.58,1.04,.26,2.06,.51,3.04,.75Z"/><path class="cls-1" d="M75.1,155.49c.29,.39,.66,.82,1.14,1.27-.42-.07-.86-.14-1.31-.21-.48-.47-.85-.92-1.13-1.33,.45,.09,.88,.18,1.3,.27Z"/><path class="cls-1" d="M80.84,160.95c.74,.68,1.63,1.4,2.66,2.15-.58-.06-1.18-.11-1.81-.17-1.06-.79-1.97-1.55-2.72-2.27,.65,.1,1.27,.2,1.87,.29Z"/><path class="cls-2" d="M88.38,166.08c2.56,1.81,5.44,3.69,8.63,5.6-1.22,0-2.48-.01-3.8-.02-3.34-2.03-6.34-4.02-8.99-5.94,1.44,.13,2.82,.24,4.15,.36Z"/><path class="cls-4" d="M101.93,175.32c1.13,.67,2.37,1.34,3.68,2.01-.34,.04-.69,.09-1.06,.14-1.39-.72-2.69-1.43-3.88-2.14,.44,0,.85,0,1.26,0Z"/><path class="cls-3" d="M117.54,183.53c.75,.37,1.53,.74,2.35,1.1-.13,.05-.27,.11-.42,.16-.87-.38-1.7-.78-2.49-1.17,.19-.03,.38-.06,.56-.09Z"/><path class="cls-3" d="M134,190.67c1.34,.58,2.71,1.13,4.1,1.65-.11,.13-.24,.26-.36,.4-1.48-.56-2.95-1.15-4.38-1.76,.22-.1,.43-.19,.63-.28Z"/><path class="cls-1" d="M151.37,197.13c1.89,.69,3.78,1.33,5.64,1.91-.01,.22-.03,.45-.05,.69-1.99-.62-4.01-1.3-6.03-2.04,.15-.19,.3-.38,.44-.56Z"/><path class="cls-3" d="M166.24,201.46c3.96,1.2,7.81,2.25,11.49,3.15,.25,.54,.51,1.11,.78,1.7-3.93-.94-8.04-2.06-12.27-3.34,0-.53,0-1.03,0-1.51Z"/><path class="cls-2" d="M182,205.54c4.09,.96,7.95,1.72,11.53,2.29,.56,.66,1.13,1.35,1.74,2.07-3.8-.59-7.91-1.39-12.26-2.39-.35-.69-.68-1.34-1.01-1.97Z"/><path class="cls-1" d="M200.18,209.24c1.24,.18,2.38,.3,3.39,.34,.27,.24,.56,.49,.85,.75-1.06-.04-2.26-.15-3.58-.34-.23-.26-.45-.51-.66-.75Z"/><path class="cls-3" d="M211.86,210.01c.51,.01,.96,0,1.34-.06,.17,.12,.35,.25,.53,.38-.39,.06-.86,.09-1.4,.08-.16-.14-.32-.27-.47-.4Z"/><path class="cls-3" d="M217.8,208.86c1.06-.18,1.92-.46,2.56-.83,.55,.34,1.11,.69,1.71,1.05-.66,.41-1.53,.72-2.63,.94-.57-.4-1.12-.79-1.64-1.16Z"/><path class="cls-3" d="M222.15,206.78c.68-.44,1.13-.98,1.36-1.6,.64,.35,1.31,.71,2,1.08-.2,.67-.64,1.26-1.33,1.75-.7-.43-1.38-.84-2.03-1.23Z"/><path class="cls-3" d="M224.15,203.64c.14-.52,.1-1.1-.1-1.73,.51,.25,1.04,.5,1.59,.77,.24,.68,.31,1.3,.2,1.87-.58-.31-1.15-.61-1.69-.9Z"/><path class="cls-4" d="M223.33,199.7c-.19-.5-.51-1.05-.94-1.62,.38,.16,.77,.33,1.17,.5,.47,.61,.83,1.19,1.05,1.73-.44-.21-.87-.41-1.29-.61Z"/><path class="cls-1" d="M220.37,195.53c-.55-.69-1.22-1.41-2.01-2.16,.41,.16,.84,.32,1.27,.48,.85,.79,1.58,1.55,2.18,2.29-.5-.21-.97-.41-1.44-.61Z"/><path class="cls-3" d="M215.78,190.98c-.79-.72-1.68-1.46-2.66-2.21,.35,.11,.7,.23,1.07,.35,1.04,.79,1.99,1.57,2.83,2.33-.42-.16-.84-.31-1.24-.46Z"/><path class="cls-2" d="M210,186.41c-1.04-.79-2.18-1.58-3.39-2.39,.3,.08,.62,.16,.94,.25,1.28,.84,2.47,1.67,3.58,2.5-.39-.12-.76-.24-1.13-.36Z"/><path class="cls-1" d="M202.33,181.14c-.46-.3-.94-.6-1.45-.9,.09,.02,.19,.03,.28,.05,.53,.31,1.04,.62,1.52,.93-.12-.03-.24-.06-.35-.09Z"/><path class="cls-1" d="M196.22,177.59c-1.69-.98-3.45-1.96-5.27-2.94,.23,.01,.46,.03,.7,.05,1.89,1.01,3.73,2.03,5.49,3.05-.32-.06-.62-.11-.93-.16Z"/><path class="cls-3" d="M187.36,172.67c-1.1-.58-2.23-1.16-3.39-1.73,.09-.01,.19-.03,.28-.04,1.2,.59,2.38,1.19,3.52,1.79-.14,0-.28-.01-.41-.02Z"/><path class="cls-1" d="M115.87,146.48c-1.17-.28-2.31-.53-3.42-.75-.29-.15-.59-.3-.89-.45,1.15,.23,2.34,.49,3.56,.78,.26,.14,.51,.28,.75,.41Z"/><path class="cls-3" d="M109.82,145.29c-1.94-.38-3.81-.7-5.61-.97-.59-.27-1.19-.55-1.81-.84,1.88,.28,3.84,.63,5.86,1.03,.53,.26,1.05,.52,1.55,.78Z"/><path class="cls-3" d="M99.84,143.51c-.44-.06-.86-.11-1.26-.15-.16-.07-.33-.14-.5-.22,.42,.04,.86,.09,1.33,.16,.15,.07,.3,.14,.44,.2Z"/><path class="cls-3" d="M95.37,143.26c-1.43-.12-2.76-.17-3.99-.17-.65-.26-1.33-.53-2.02-.8,1.31,0,2.72,.08,4.23,.21,.61,.26,1.2,.51,1.78,.76Z"/><path class="cls-7" d="M87.22,142.89c-.3,0-.57,.02-.82,.06-.18-.06-.36-.13-.54-.2,.26-.03,.56-.05,.88-.05,.17,.07,.33,.13,.48,.19Z"/><path class="cls-4" d="M85.31,143.6c-1.45,.22-2.71,.53-3.76,.95-1.13-.38-2.29-.77-3.49-1.17,1.15-.42,2.52-.73,4.09-.93,1.08,.4,2.13,.78,3.16,1.15Z"/><path class="cls-2" d="M79.74,144.79c-.56,.23-1,.52-1.31,.87-.65-.2-1.32-.4-2-.61,.36-.35,.86-.64,1.47-.88,.63,.21,1.24,.41,1.84,.61Z"/><path class="cls-2" d="M76.6,147.03c-.13,.15-.2,.34-.21,.54-.29-.08-.59-.16-.91-.24,.03-.21,.12-.39,.27-.55,.29,.09,.57,.17,.85,.25Z"/><path class="cls-3" d="M77.58,149.28c0,.95,.29,2.03,.91,3.21-1.36-.31-2.76-.64-4.21-.97-.57-1.23-.8-2.33-.72-3.32,1.38,.37,2.72,.73,4.02,1.08Z"/><path class="cls-2" d="M78.22,154.27c.1,.18,.24,.37,.44,.58-.2-.04-.41-.08-.62-.11-.2-.22-.34-.42-.43-.61,.21,.05,.41,.09,.61,.14Z"/><path class="cls-7" d="M82.55,158.5c.79,.83,1.78,1.72,2.96,2.65-.74-.09-1.5-.19-2.3-.29-1.21-.99-2.22-1.92-3.01-2.79,.81,.15,1.59,.29,2.34,.43Z"/><path class="cls-1" d="M89.08,163.79c1.66,1.3,3.59,2.66,5.78,4.06-.91-.05-1.86-.1-2.85-.15-2.28-1.48-4.29-2.92-5.99-4.29,1.06,.13,2.08,.26,3.06,.38Z"/><path class="cls-7" d="M98.85,170.54c2,1.27,4.21,2.56,6.63,3.87-.69,.04-1.41,.09-2.16,.13-2.54-1.39-4.87-2.77-6.96-4.12,.86,.04,1.69,.08,2.49,.12Z"/><path class="cls-3" d="M112.92,178.85c1.02,.55,2.12,1.1,3.27,1.63-.22,.05-.45,.11-.69,.17-1.23-.58-2.39-1.16-3.47-1.75,.3-.02,.6-.04,.88-.06Z"/><path class="cls-4" d="M126.73,185.2c2.16,1,4.42,1.97,6.73,2.9-.25,.17-.52,.34-.8,.53-2.46-.99-4.87-2.03-7.17-3.1,.43-.11,.84-.22,1.24-.32Z"/><path class="cls-7" d="M144.15,192.52c1.5,.6,3.02,1.16,4.53,1.67-.06,.15-.12,.3-.19,.46-1.62-.55-3.25-1.15-4.84-1.79,.17-.12,.34-.24,.5-.35Z"/><path class="cls-7" d="M157.45,196.73c4.04,1.36,8.03,2.59,11.88,3.66,.11,.48,.23,.98,.36,1.5-4.12-1.13-8.38-2.44-12.71-3.9,.16-.44,.32-.86,.46-1.26Z"/><path class="cls-3" d="M178.26,203.19c.87,.24,1.71,.44,2.49,.6,.08,.12,.17,.25,.26,.38-.83-.17-1.73-.38-2.66-.63-.03-.12-.06-.24-.09-.35Z"/><path class="cls-1" d="M188.56,205.01c3.13,.63,6.03,1.09,8.66,1.38,.52,.51,1.05,1.04,1.61,1.6-2.78-.29-5.86-.76-9.18-1.42-.38-.54-.74-1.06-1.08-1.56Z"/><path class="cls-1" d="M203.53,207.37c.92,.1,1.74,.13,2.45,.11,.23,.18,.47,.37,.72,.56-.74,.03-1.6,0-2.58-.1-.21-.2-.4-.4-.59-.58Z"/><path class="cls-2" d="M211.65,207.2c1.01-.04,1.86-.16,2.54-.35,.38,.25,.77,.51,1.18,.78-.7,.22-1.58,.36-2.64,.41-.38-.29-.74-.57-1.09-.84Z"/><path class="cls-7" d="M216.43,205.86c1.16-.35,2.04-.83,2.63-1.43,.7,.41,1.43,.83,2.19,1.26-.57,.65-1.46,1.18-2.66,1.58-.75-.49-1.47-.96-2.16-1.41Z"/><path class="cls-3" d="M220.48,203.42c.3-.33,.45-.71,.45-1.14,.38,.19,.78,.39,1.18,.6,.02,.47-.12,.89-.41,1.24-.42-.24-.83-.48-1.23-.7Z"/><path class="cls-2" d="M221.2,199.89c0-.14-.05-.3-.14-.46,.12,.05,.24,.11,.36,.16,.1,.18,.16,.35,.17,.5-.14-.07-.27-.13-.39-.2Z"/><path class="cls-3" d="M219.21,196.69c-.46-.82-1.12-1.7-1.95-2.62,.53,.22,1.08,.44,1.65,.66,.9,.98,1.62,1.91,2.14,2.79-.63-.29-1.25-.56-1.84-.83Z"/><path class="cls-4" d="M215.9,192.58c-.82-.9-1.81-1.83-2.95-2.79,.47,.16,.94,.33,1.44,.5,1.21,1.01,2.27,2,3.16,2.95-.57-.22-1.12-.44-1.65-.66Z"/><path class="cls-1" d="M211.65,188.79c-1.61-1.35-3.41-2.74-5.39-4.14,.56,.16,1.14,.33,1.74,.51,2.09,1.47,4.01,2.93,5.72,4.35-.71-.25-1.4-.49-2.07-.72Z"/><path class="cls-2" d="M205.5,184.06c-1.55-1.09-3.22-2.2-5-3.31,.37,.08,.74,.17,1.12,.25,1.87,1.16,3.63,2.32,5.25,3.46-.47-.14-.93-.27-1.38-.4Z"/><path class="cls-3" d="M197.62,178.88c-.78-.49-1.61-.97-2.47-1.46,.12,.02,.25,.03,.38,.05,.9,.5,1.76,1.01,2.58,1.52-.17-.04-.34-.07-.5-.11Z"/><path class="cls-2" d="M191.73,175.57c-2.03-1.13-4.15-2.27-6.33-3.39,.21,0,.43,0,.65-.01,2.27,1.16,4.47,2.33,6.59,3.51-.31-.04-.61-.08-.91-.11Z"/></g></g></g></svg>